<?xml version="1.0" encoding="utf-8"?>
<!-- Generator: Adobe Illustrator 16.0.0, SVG Export Plug-In . SVG Version: 6.00 Build 0)  -->
<!DOCTYPE svg PUBLIC "-//W3C//DTD SVG 1.1//EN" "http://www.w3.org/Graphics/SVG/1.1/DTD/svg11.dtd">
<svg version="1.1" xmlns="http://www.w3.org/2000/svg" xmlns:xlink="http://www.w3.org/1999/xlink" x="0px" y="0px"
	 width="35.477px" height="30.945px" viewBox="0 0 35.477 30.945" enable-background="new 0 0 35.477 30.945" xml:space="preserve">
<g id="Layer_1" display="none">
</g>
<g id="Layer_2">
	<g>
		
			<linearGradient id="SVGID_1_" gradientUnits="userSpaceOnUse" x1="-6601.4834" y1="22.2051" x2="-6586.7046" y2="10.4027" gradientTransform="matrix(-1 0 0 1 -6567.3359 0)">
			<stop  offset="0" style="stop-color:#F2C800"/>
			<stop  offset="0.9072" style="stop-color:#F1AB0D"/>
		</linearGradient>
		<path fill="url(#SVGID_1_)" d="M16.986,8.645c0,0,1.45-4.495,2.825-4.731c1.374-0.236,5.727,0.278,9.602,3.688
			c3.877,3.409,5.319,8.785,5.684,13.198c0.367,4.413-1.583,9.052-3.606,9.514c-2.021,0.462-6.107-6.641-6.107-6.641L16.986,8.645z"
			/>
		
			<linearGradient id="SVGID_2_" gradientUnits="userSpaceOnUse" x1="-6602.8125" y1="16.8691" x2="-6584.2305" y2="16.8691" gradientTransform="matrix(-1 0 0 1 -6567.3359 0)">
			<stop  offset="0.0714" style="stop-color:#F2B700"/>
			<stop  offset="1" style="stop-color:#F2DA00"/>
		</linearGradient>
		<path fill="url(#SVGID_2_)" d="M31.656,29.63c2.494-0.428,3.467-6.809,2.734-11.963c-1.15-8.1-8.819-14.342-17.496-13.712
			l1.036-1.106c4.614-0.219,15.664,3.322,17.302,14.862c0.859,6.05-0.6,12.67-3.619,13.188l-0.485-0.714L31.656,29.63z"/>
		
			<linearGradient id="SVGID_3_" gradientUnits="userSpaceOnUse" x1="-5891.2568" y1="446.8115" x2="-5889.4072" y2="446.8115" gradientTransform="matrix(-0.7194 -0.6946 -0.4084 0.423 -4028.3291 -4273.5977)">
			<stop  offset="0" style="stop-color:#F2EF00"/>
			<stop  offset="0.9286" style="stop-color:#F2DA00"/>
		</linearGradient>
		<path fill="url(#SVGID_3_)" d="M29.029,5.173C28.08,4.395,27.578,6.076,27.61,5.86c0.12-0.812-0.111,1.614-0.714,2.085
			c-0.647,0.503-2.742-0.193-2.378,1.277c-0.362-0.322-0.451-0.458-0.414-0.729c0.047-0.343,0.28-0.645,0.528-0.827
			c0.241-0.178,0.622-0.123,0.993-0.097c0.525,0.038,0.843-0.044,1.121-0.367c0.526-0.608,0.255-1.722,0.727-2.354
			c0.137-0.184,0.319-0.464,0.593-0.479c0.421-0.021,0.732-0.15,1.248,0.518"/>
		<g>
			<path fill="#E83D21" d="M26.781,5.464c-0.568-0.937-1.719-0.491-2.549,0.137c-0.829,0.629-0.118,1.959,0.431,2.476
				c0.545,0.516,1.46,0.146,2.063-0.384C27.329,7.161,27.504,6.387,26.781,5.464z"/>
			<path fill="#F77781" d="M26.085,5.216c-0.215-0.175-0.741,0.081-1.204,0.318c-0.462,0.239-0.73,0.483-0.667,0.635
				c0.065,0.149,0.283,0.055,0.935-0.292C25.799,5.532,26.267,5.366,26.085,5.216z"/>
		</g>
		<path fill="#64A924" d="M28.967,16.199c0.354-0.784,1.084-2.024,1.884-2.387c0.467-0.21,0.798-0.018,1.018-0.552
			c-0.294-0.148-1.098-0.098-1.155-0.466c0.621-0.154,1.158-0.595,1.486-1.134c0.33-0.546-0.044-0.563-0.521-0.495
			c0.009-0.244-0.026-0.478-0.154-0.684c-0.289,0.329-0.678,0.736-1.059,0.294c-0.36-0.42,0.039-0.838,0.343-1.147
			c0.351-0.356,1.35-1.184,0.401-1.507c-0.239,0.199-0.411,0.831-0.853,0.691c-0.233-0.075-0.287-0.378-0.312-0.567
			c-0.062-0.468,0.274-0.909,0.299-1.356c0.028-0.56-0.348-0.567-0.755-0.842c-0.165,0.286-0.343,0.651-0.731,0.598
			c-0.005-0.323-0.143-0.505-0.468-0.424C27.665,6.399,28.127,7.55,27.4,7.507c-0.803-0.047-1.203-1.279-2.121-0.991
			c-0.637,0.2-0.604,0.889-0.606,1.438c-0.002,0.559,0.021,1.118-0.205,1.642c-0.109,0.254-0.3,0.47-0.411,0.722
			c-0.264,0.603-0.153,1.073,0.108,1.623c0.486,1.025,0.794,1.976,1.039,3.075c0.124,0.556-0.021,1.319,0.438,1.652
			c0.446,0.322,1.916-0.045,2.086,0.303"/>
		<g>
			<path fill="#E83D21" d="M31.302,14.021c1.222-0.166,1.277-1.555,0.999-2.692c-0.277-1.139-1.971-0.999-2.749-0.666
				c-0.777,0.333-0.805,1.443-0.527,2.305C29.302,13.826,30.024,14.354,31.302,14.021z"/>
			<path fill="#F77781" d="M31.867,13.413c0.279-0.144,0.251-0.803,0.212-1.386c-0.041-0.583-0.172-0.972-0.355-0.972
				c-0.186,0-0.186,0.268-0.119,1.094C31.67,12.975,31.632,13.534,31.867,13.413z"/>
		</g>
		<path fill="#64A924" d="M24.37,8.856c-0.678-0.677,0.472-1.939,1.001-2.319c-0.229-0.565-0.779,0.236-0.81-0.499
			c-0.027-0.664,0.856-1.103,0.688-1.812c-0.157-0.683-0.677,0.104-1.117-0.134c-0.386-0.208-0.131-0.858-0.619-1.085
			c-0.348-0.162-0.521,0.162-0.798,0.124c-0.379-0.055-0.315-0.548-0.659-0.644c-0.423-0.118-0.499,0.376-0.674,0.645
			c-0.281,0.436-0.65,0.91-1.022,1.269c-0.475,0.459-0.475,0.937-0.097,1.55c0.265,0.427,0.713,0.664,1.028,1.037
			c0.241,0.285,0.351,0.63,0.599,0.905c0.316,0.351,0.68,0.769,1.086,1.013c0.268,0.16,0.591,0.209,0.852,0.376"/>
		<path fill="#83D138" d="M24.574,7.57c-0.97-0.006-0.635-1.457-0.255-1.905c0.182-0.213,0.471-0.348,0.318-0.69
			c-0.138-0.311-0.461-0.267-0.726-0.224c-0.544,0.089-0.988,0.281-0.983-0.54c0.002-0.411,0.417-1.765-0.469-1.024
			c-0.104,0.088-0.251,0.427-0.389,0.444c-0.108,0.014-0.444-0.398-0.462-0.507c-0.043-0.284,0.287-0.53,0.281-0.855
			c-0.003-0.217-0.08-0.706-0.289-0.837c-0.789-0.494-0.867,1.074-1.156,1.28c-0.371,0.262-0.672-0.604-1.126-0.665
			c-0.182,0.406-0.33,1.147-0.82,1.325c-0.274,0.1-0.64-0.084-0.896,0.091c-0.458,0.314-0.098,1.009,0.14,1.366
			c0.766,1.16,1.507,2.147,2.849,2.679c0.396,0.158,0.671,0.433,1.055,0.58c0.595,0.229,1.625,0.23,2.268,0.116"/>
		<path fill="#557F00" d="M32.771,18.413c0.253-0.093,0.536-0.318,0.757-0.477c0.469-0.335,0.841-0.743,1.051-1.278
			c0.131-0.329,0.105-0.511-0.309-0.534c-0.319-0.017-0.367,0.053-0.543-0.216c-0.173-0.268-0.078-0.416-0.109-0.713
			c-0.18-0.014-0.373-0.026-0.506,0.098c-0.083-0.382,0.021-0.778-0.029-1.161c-0.063-0.469-0.216-0.346-0.525-0.125
			c-0.199,0.142-0.525,0.434-0.787,0.327c0.003-0.275-0.01-0.601-0.057-0.874c-0.045-0.273-0.132-0.405-0.451-0.331
			c-0.146,0.035-0.287,0.158-0.42,0.227c-0.304,0.158-0.664,0.237-0.872,0.533c-0.263,0.378-0.402,1.218-0.422,1.661
			c-0.036,0.808,0.746,0.846,1.291,1.227c0.251,0.177,0.528,0.376,0.722,0.619c0.131,0.165,0.186,0.374,0.312,0.536
			c0.276,0.351,0.562,0.303,0.897,0.069"/>
		<path fill="#83D138" d="M32.113,21.114c0.655-0.282,1.813-0.797,2.205-1.467c0.365-0.623-0.415-0.721-0.888-0.814
			c-0.828-0.162-0.431-0.394-0.165-0.976c0.302-0.663-0.121-0.405-0.569-0.614c-0.022-0.285,0.024-0.451,0.143-0.69
			c0.124-0.257,0.387-0.531,0.275-0.853c-0.089-0.25-0.43-0.47-0.687-0.313c-0.166,0.102-0.264,0.532-0.321,0.7
			c-0.504-0.106-0.318-0.967-0.42-1.315c-0.064-0.229-0.272-0.578-0.591-0.541c-0.336,0.039-0.345,0.544-0.497,0.777
			c-0.318,0.486-0.552,0.184-0.65-0.195c-0.134-0.514-0.2-0.656-0.809-0.799c-0.383-0.09-0.653-0.019-0.944,0.235
			c-0.629,0.548-1.088,1.078-1.216,1.918c-0.12,0.783-0.004,1.571,0.396,2.258c0.312,0.542,0.507,0.964,1.018,1.332
			c0.586,0.423,1.336,1.18,2.062,1.317c0.453,0.086,1.6,0.252,1.93-0.153"/>
		<path fill="#64A924" d="M28.659,18.266c-0.146-0.547-0.067-1.344,0.328-1.785c0.22-0.245,0.566-0.541,0.856-0.197
			c0.191,0.227,0.051,0.687,0.538,0.534c0.251-0.08,0.705-0.662,0.933-0.316c0.044,0.068,0.079,0.317,0.082,0.409
			c0.014,0.238-0.012,0.13-0.082,0.329c-0.06,0.16-0.133,0.13-0.05,0.298c0.083,0.173,0.531,0.275,0.691,0.362
			c0.311,0.166,0.418,0.298,0.337,0.653c-0.048,0.208-0.095,0.115,0.047,0.311c0.269,0.372,0.808,0.583,1.114,0.934
			c-0.115,0.333-0.484,0.368-0.52,0.712c-0.018,0.199,0.049,0.371,0.033,0.57c-0.01,0.14-0.019,0.266-0.056,0.402
			c-0.36,0.089-1.427,0.147-1.802-0.073c-0.189-0.112-0.333-0.379-0.482-0.535c-0.379-0.395-0.784-0.786-1.186-1.159
			c-0.223-0.206-0.946-0.658-0.835-1.038"/>
		<path fill="#4C290C" d="M31.267,19.736c0.342,0.046,0.538-0.457,0.409-0.729c-0.158-0.337-0.584-0.202-0.819-0.432
			c-0.242-0.238-0.249-1.03-0.785-0.924c-0.095,0.02-0.156,0.199-0.284,0.22c-0.234,0.039-0.305-0.128-0.384-0.279
			c-0.184-0.36-0.456-0.748-0.954-0.535c-0.268,0.115-0.686,0.488-0.781,0.761c-0.198,0.576,0.14,0.852,0.399,1.3
			c0.206,0.355,0.211,0.849,0.608,1.054c0.45,0.232,1.121,0.133,1.573-0.03"/>
		<path fill="#754C24" d="M31.295,27.761c1.875-1.309,2.967-1.919,2.18-3.097c-0.783-1.177,0.307-1.265,0-2.268
			c-0.305-1.003-1.569-1.57-3.096-1.396c-1.526,0.174-2.661,1.526-2.661,1.526l1.57,4.012L31.295,27.761z"/>
		<path fill="#4C290C" d="M30.99,26.59c0.076-0.029,0.13-0.068,0.201-0.11c0.275-0.164,0.456-0.192,0.759-0.258
			c0.31-0.068,0.71-0.391,0.742-0.734c0.03-0.321-0.292-0.339-0.442-0.547c-0.13-0.177-0.079-0.358-0.185-0.541
			c-0.181-0.309-0.542-0.237-0.837-0.229c-0.538,0.017-0.588,0.553-0.682,1.021c-0.049,0.25-0.085,1.582,0.418,1.462
			c0.005-0.02,0.008-0.042,0.004-0.063"/>
		<path fill="#B17100" d="M30.637,23.047c0.277,0.105,0.601-0.067,0.855-0.165c0.35-0.135,0.751-0.25,0.927-0.616
			c0.099-0.206,0.159-0.521,0.094-0.745c-0.071-0.242-0.309-0.288-0.401-0.487c-0.258-0.547,0.83-0.599,0.705-1.106
			c-0.051-0.209-0.433-0.429-0.64-0.363c-0.151,0.05-0.271,0.301-0.481,0.207c-0.368-0.166-0.278-0.94-0.705-1.078
			c-0.233-0.075-0.328,0.098-0.473,0.226c-0.254,0.227-0.369,0.112-0.665-0.014c-0.519-0.221-1.052-0.137-1.25,0.453
			c-0.323,0.961,0.156,1.855,0.699,2.597c0.175,0.238,0.258,0.583,0.471,0.785c0.207,0.195,0.48,0.303,0.746,0.379"/>
		<path fill="#4C290C" d="M30.597,24.562c0.705,0.062,1.595-0.845,1.485-1.55c-0.052-0.331-0.266-0.467-0.467-0.682
			c-0.178-0.188-0.247-0.501-0.466-0.642c-0.367-0.239-0.758-0.091-1.111,0.034c-0.444,0.157-0.771,0.122-0.876,0.691
			c-0.126,0.671,0.15,1.643,0.652,2.122c0.418,0.398,0.435,0.24,0.782-0.002"/>
		<path fill="#754C24" d="M30.207,29.373c1.706,0.372,2.258-0.454,2.354-1.252c0.073-0.608-0.959-0.645-1.486-1.267
			c-1.222-1.438-4.599-3.569-4.599-3.569l2.006,6.629L30.207,29.373z"/>
		<path fill="#B17100" d="M29.877,29.958c2.442-1.265,2.659-2.704,1.44-4.144c-1.223-1.438-4.842-2.529-4.842-2.529l2.006,6.629
			L29.877,29.958z"/>
		<path fill="#B17100" d="M29.07,27.004c1.658-1.046,3.053-2.267,2.095-3.881c-0.961-1.613-1.003-2.268-1.223-3.532
			c-0.217-1.266-2.354-2.442-3.924-2.312c-1.57,0.131-3.052,2.922-3.052,2.922l1.786,4.1L29.07,27.004z"/>
		<path fill="#4C290C" d="M27.079,29.735c3.229,0.087,3.534,0,4.144-0.61c0.611-0.61-0.436-1.265-1.525-1.177
			c-1.091,0.087-3.577-0.611-3.883-1.265c-0.305-0.654-0.13,1.57-0.13,1.57L27.079,29.735z"/>
		<path fill="#754C24" d="M30.554,25.173c0.741-1.526-0.392-1.701-1.657-1.265c-1.265,0.437-2.878,0.437-2.965,0.306
			c-0.088-0.131-0.612,0.654-0.175,1.09c0.437,0.436,1.221,0.828,2.007,1.047c0.784,0.218,2.66-0.567,2.66-0.567L30.554,25.173z"/>
		<path fill="#4C290C" d="M27.399,21.48c-0.022,0.025-0.031,0.051-0.029,0.082c0.354,0.301,0.558,0.54,1.064,0.621
			c0.336,0.054,0.679,0.068,0.68-0.335c0.002-0.335-0.604-0.672-0.52-0.948c0.159-0.524,1.073,0.024,1.3,0.089
			c0.466,0.132,1.128-0.107,1.168-0.666c0.022-0.316-0.221-0.51-0.474-0.647c-0.376-0.201-0.492-0.15-0.873-0.025
			c-0.449,0.148-0.524,0.046-0.861-0.178c-0.511-0.339-1.362-0.537-1.895-0.134c-0.429,0.325-0.548,1.048-0.428,1.545
			c0.104,0.433,0.478,0.589,0.867,0.742"/>
		<path fill="#E8B691" d="M30.447,24.194c0.281-0.027,0.304-0.65,0.183-0.824c-0.221-0.317-0.649-0.388-0.967-0.205
			c-0.231,0.133-0.408,0.459-0.333,0.731c0.038,0.138,0.133,0.178,0.266,0.113c0.115-0.058,0.133-0.18,0.231-0.25
			c0.101-0.071,0.268-0.05,0.321,0.064c0.036,0.079-0.02,0.187,0.011,0.267c0.035,0.099,0.178,0.154,0.253,0.069"/>
		<path fill="#E8B691" d="M32.58,22.973c0.427,0.072,0.229,0.62-0.11,0.523c-0.238-0.069-0.186-0.586,0.082-0.563
			c0.016-0.004,0.016-0.014,0.001-0.029"/>
		<path fill="#E8B691" d="M31.426,27.92c0.179,0.007,0.274-0.408,0.205-0.546c-0.096-0.196-0.339-0.123-0.479-0.247
			c-0.115-0.103-0.149-0.32-0.357-0.277c-0.205,0.042-0.2,0.322-0.071,0.436c0.096,0.082,0.3,0.097,0.373,0.193
			c0.064,0.084,0.009,0.19-0.011,0.276c-0.049,0.207-0.005,0.324,0.244,0.261"/>
		<path fill="#E8B691" d="M30.258,19.812c0.455-0.052,0.306,0.463-0.081,0.452c-0.154-0.005-0.35-0.162-0.267-0.333
			c0.046-0.095,0.257-0.214,0.348-0.145"/>
		<path fill="#83D138" d="M26.269,11.282c0.219-0.101,0.276-0.352,0.396-0.56c0.301-0.528,0.773-0.944,1.293-1.244
			c0.722-0.415,0.54,0.524,0.714,0.994c0.229-0.055,0.463-0.169,0.693-0.101c-0.012,0.649-1.336,0.431-0.787,1.017
			c0.251,0.271,0.906,0.092,1.061,0.437c0.204,0.459-0.408,0.543-0.666,0.55c0.169,0.399,0.748,0.512,0.889,0.875
			c0.262,0.673-0.508,0.364-0.733,0.562c-0.329,0.29,0.189,0.706,0.159,0.999c-0.049,0.459-0.721,0.346-1.089,0.261
			c-0.2,0.325-0.254,0.426-0.617,0.229c-0.605-0.329-1.188-1.3-1.342-1.937c-0.087-0.355-0.012-0.741-0.099-1.085
			c-0.076-0.301-0.404-0.678,0.09-0.843"/>
		<path fill="#CFF9AF" d="M27.659,10.376c0.098-0.136,0.303-0.151,0.443-0.076c0.006,0.192,0.002,0.388,0.002,0.581
			c-0.003,0.388,0.213,0.405,0.577,0.403c0.114,0,0.369-0.058,0.392,0.077c0.029,0.179-0.186,0.161-0.293,0.202
			c-0.188,0.072-0.671,0.241-0.47,0.496c0.204,0.254,0.979,0.142,1.089,0.463c0.082,0.249-0.293,0.218-0.427,0.295
			c-0.261,0.151-0.093,0.311,0.078,0.479c0.282,0.279,0.523,0.561,0.6,0.962c-0.522,0.332-1.067-0.144-1.372-0.533
			c-0.267-0.339,0.018-0.455,0.121-0.783c0.09-0.285-0.253-0.309-0.484-0.444c-0.277-0.16-0.5-0.426-0.319-0.735
			c0.104-0.179,0.255-0.319,0.08-0.492c-0.155-0.153-0.277-0.072-0.288-0.351c-0.006-0.207,0.071-0.741,0.369-0.678"/>
		
			<linearGradient id="SVGID_4_" gradientUnits="userSpaceOnUse" x1="-6587.8882" y1="5.106" x2="-6585.7998" y2="5.106" gradientTransform="matrix(-1 0 0 1 -6567.3359 0)">
			<stop  offset="0" style="stop-color:#F2EF00"/>
			<stop  offset="0.9286" style="stop-color:#F2DA00"/>
		</linearGradient>
		<path fill="url(#SVGID_4_)" d="M18.996,10.207c0.527-0.334,1.011-1.532,1.046-2.125c0.036-0.599,0.06-1.271-0.118-1.845
			c-0.159-0.515-0.429-0.992-0.464-1.53C19.361,3.231,21.521,1.325,20.019,0c-0.203,0.069-0.436,0.153-0.624,0.237
			c1.349,1.224-0.396,2.6-0.67,3.941c-0.12,0.587-0.168,1.113,0.036,1.69c0.165,0.47,0.517,0.903,0.594,1.409
			c0.132,0.869-0.444,1.463-0.891,2.113c0.19,0.299,0.488,0.525,0.665,0.82c-0.021-0.062-0.031-0.138-0.055-0.198"/>
		
			<linearGradient id="SVGID_5_" gradientUnits="userSpaceOnUse" x1="-6592.3228" y1="6.7954" x2="-6590.3193" y2="6.7954" gradientTransform="matrix(-1 0 0 1 -6567.3359 0)">
			<stop  offset="0" style="stop-color:#F2EF00"/>
			<stop  offset="0.9286" style="stop-color:#F2DA00"/>
		</linearGradient>
		<path fill="url(#SVGID_5_)" d="M24.636,2.596c-0.618,0.398-0.732,1.296-0.425,1.892c0.171,0.332,0.792,1.042,0.775,1.377
			c-0.025,0.495-0.704,0.888-0.931,1.296c-0.534,0.958,0.56,1.582,0.619,2.479c0.039,0.568-0.51,1.493-0.807,2.002
			c-0.287-0.062-0.634-0.399-0.885-0.577c0.489-0.139,0.671-0.611,0.849-1.033c0.206-0.489,0.035-0.698-0.196-1.193
			c-0.153-0.329-0.327-0.639-0.421-0.994c-0.159-0.621-0.039-1.021,0.31-1.539c0.244-0.365,0.711-0.531,0.575-1.042
			C23.92,4.6,23.368,4.211,23.283,3.48c-0.057-0.483-0.077-0.707,0.231-1.047c0.118-0.13,0.326-0.402,0.501-0.466
			c0.334-0.12,1.013,0.38,0.968,0.666"/>
		
			<linearGradient id="SVGID_6_" gradientUnits="userSpaceOnUse" x1="-8224.0488" y1="898.415" x2="-8222.1035" y2="898.415" gradientTransform="matrix(0.0015 1 1 -0.0015 -859.6489 8234.083)">
			<stop  offset="0" style="stop-color:#F2EF00"/>
			<stop  offset="0.9286" style="stop-color:#F2DA00"/>
		</linearGradient>
		<path fill="url(#SVGID_6_)" d="M21.331,9.379c0.042,0.237,0.187,0.886,0.423,0.999c0.173,0.082,0.129,0.037,0.341-0.032
			c0.448-0.148,0.809-0.543,1.278-0.664c1.104-0.281,1.716,1.116,2.713,0.934c0.55-0.1,0.942-0.87,1.464-1.063
			c0.577-0.213,0.934,0.028,1.394,0.317c1.098,0.69,1.871,0.204,2.587-0.711c-0.286-0.289-0.326-0.465-0.68-0.337
			c-0.351,0.126-0.659,0.544-1.056,0.586c-0.44,0.046-0.82-0.424-1.212-0.581c-0.479-0.192-0.828-0.189-1.299,0.001
			c-0.459,0.186-1.08,0.832-1.59,0.81c-0.218-0.009-0.428-0.22-0.617-0.315c-0.319-0.158-0.653-0.275-0.978-0.42
			c-0.562-0.25-0.936-0.164-1.528,0.049c-0.248,0.09-0.495,0.171-0.744,0.263c-0.083,0.031-0.517,0.172-0.305,0.164"/>
		
			<linearGradient id="SVGID_7_" gradientUnits="userSpaceOnUse" x1="-8050.4717" y1="527.6777" x2="-8048.6152" y2="527.6777" gradientTransform="matrix(-0.308 0.9514 0.9514 0.308 -2954.5186 7507.7544)">
			<stop  offset="0" style="stop-color:#F2EF00"/>
			<stop  offset="0.9286" style="stop-color:#F2DA00"/>
		</linearGradient>
		<path fill="url(#SVGID_7_)" d="M21.932,10.648c0.117,0.426,0.217,0.944,0.693,0.868c0.471-0.075,0.843-0.518,1.367-0.417
			c0.969,0.186,1.289,1.769,2.479,1.48c0.494-0.119,0.963-0.394,1.47-0.189c0.444,0.18,0.572,0.613,0.896,0.942
			c0.773,0.787,1.957,0.455,2.783-0.103c-0.103-0.205-0.239-0.364-0.259-0.585c-0.892,0.089-1.484,0.552-2.295-0.082
			c-0.406-0.316-0.663-0.81-1.161-0.997c-0.656-0.247-1.125,0.323-1.742,0.406c-0.871,0.116-1.351-1.297-1.971-1.773
			c-0.329-0.251-0.466-0.196-0.909-0.109c-0.26,0.052-1.492,0.346-1.34,0.645"/>
		
			<linearGradient id="SVGID_8_" gradientUnits="userSpaceOnUse" x1="-6599.2559" y1="15.9077" x2="-6567.3364" y2="15.9077" gradientTransform="matrix(-1 0 0 1 -6567.3359 0)">
			<stop  offset="0.0714" style="stop-color:#F2B700"/>
			<stop  offset="1" style="stop-color:#F2DA00"/>
		</linearGradient>
		<path fill="url(#SVGID_8_)" d="M31.613,30.899c-2.56,0.439-6.805-2.446-9.767-3.831c-2.963-1.385-18.525-8.468-19.781-9.228
			c-1.257-0.76-1.841-2.667-1.999-3.788C-0.556,9.684,3.215,1.96,12.138,0.961c10.392-1.162,14.706,9.124,16.043,18.535
			c1.337,9.412,1.794,10.423,3.476,10.134l0.264,0.294L31.613,30.899z"/>
		
			<linearGradient id="SVGID_9_" gradientUnits="userSpaceOnUse" x1="-6598.9492" y1="16.2173" x2="-6567.3364" y2="16.2173" gradientTransform="matrix(-1 0 0 1 -6567.3359 0)">
			<stop  offset="0" style="stop-color:#F2DA00"/>
			<stop  offset="0.9286" style="stop-color:#F2B700"/>
		</linearGradient>
		<path fill="url(#SVGID_9_)" d="M21.847,27.068c-2.963-1.385-18.525-8.468-19.781-9.228c-1.257-0.76-1.841-2.667-1.999-3.788
			C-0.31,11.41,0.92,7.544,3.925,4.677c1.895-1.569,4.389-2.746,7.518-3.097c10.392-1.162,14.706,9.124,16.043,18.534
			c1.336,9.412,1.7,10.837,4.128,10.785C29.054,31.339,24.809,28.453,21.847,27.068z"/>
		<g>
			
				<linearGradient id="SVGID_10_" gradientUnits="userSpaceOnUse" x1="-6574.7036" y1="14.9756" x2="-6590.1294" y2="9.9533" gradientTransform="matrix(-1 0 0 1 -6567.3359 0)">
				<stop  offset="0" style="stop-color:#F2EE00"/>
				<stop  offset="0.4987" style="stop-color:#F2A000"/>
				<stop  offset="0.9286" style="stop-color:#F28E00"/>
			</linearGradient>
			<circle fill="url(#SVGID_10_)" cx="16.065" cy="12.143" r="0.265"/>
			
				<linearGradient id="SVGID_11_" gradientUnits="userSpaceOnUse" x1="-6572.853" y1="14.4414" x2="-6588.2769" y2="9.4197" gradientTransform="matrix(-1 0 0 1 -6567.3359 0)">
				<stop  offset="0" style="stop-color:#F2EE00"/>
				<stop  offset="0.4987" style="stop-color:#F2A000"/>
				<stop  offset="0.9286" style="stop-color:#F28E00"/>
			</linearGradient>
			<circle fill="url(#SVGID_11_)" cx="9.406" cy="13.175" r="0.265"/>
			
				<linearGradient id="SVGID_12_" gradientUnits="userSpaceOnUse" x1="-6571.8462" y1="10.1006" x2="-6587.2432" y2="5.0875" gradientTransform="matrix(-1 0 0 1 -6567.3359 0)">
				<stop  offset="0" style="stop-color:#F2EE00"/>
				<stop  offset="0.4987" style="stop-color:#F2A000"/>
				<stop  offset="0.9286" style="stop-color:#F28E00"/>
			</linearGradient>
			<circle fill="url(#SVGID_12_)" cx="9.527" cy="8.468" r="0.264"/>
			
				<linearGradient id="SVGID_13_" gradientUnits="userSpaceOnUse" x1="-6571.5142" y1="15.4434" x2="-6586.9131" y2="10.4298" gradientTransform="matrix(-1 0 0 1 -6567.3359 0)">
				<stop  offset="0" style="stop-color:#F2EE00"/>
				<stop  offset="0.4987" style="stop-color:#F2A000"/>
				<stop  offset="0.9286" style="stop-color:#F28E00"/>
			</linearGradient>
			<circle fill="url(#SVGID_13_)" cx="3.303" cy="15.729" r="0.265"/>
			
				<linearGradient id="SVGID_14_" gradientUnits="userSpaceOnUse" x1="-6570.1562" y1="10.7056" x2="-6585.6104" y2="5.674" gradientTransform="matrix(-1 0 0 1 -6567.3359 0)">
				<stop  offset="0" style="stop-color:#F2EE00"/>
				<stop  offset="0.4987" style="stop-color:#F2A000"/>
				<stop  offset="0.9286" style="stop-color:#F28E00"/>
			</linearGradient>
			<circle fill="url(#SVGID_14_)" cx="2.465" cy="10.821" r="0.265"/>
			
				<linearGradient id="SVGID_15_" gradientUnits="userSpaceOnUse" x1="-6569.8545" y1="7.4883" x2="-6585.25" y2="2.4758" gradientTransform="matrix(-1 0 0 1 -6567.3359 0)">
				<stop  offset="0" style="stop-color:#F2EE00"/>
				<stop  offset="0.4987" style="stop-color:#F2A000"/>
				<stop  offset="0.9286" style="stop-color:#F28E00"/>
			</linearGradient>
			<circle fill="url(#SVGID_15_)" cx="4.289" cy="6.912" r="0.264"/>
			
				<linearGradient id="SVGID_16_" gradientUnits="userSpaceOnUse" x1="-6573.9229" y1="12.1299" x2="-6589.3184" y2="7.1174" gradientTransform="matrix(-1 0 0 1 -6567.3359 0)">
				<stop  offset="0" style="stop-color:#F2EE00"/>
				<stop  offset="0.4987" style="stop-color:#F2A000"/>
				<stop  offset="0.9286" style="stop-color:#F28E00"/>
			</linearGradient>
			<circle fill="url(#SVGID_16_)" cx="15.63" cy="9.186" r="0.265"/>
			
				<linearGradient id="SVGID_17_" gradientUnits="userSpaceOnUse" x1="-6577.5664" y1="18.2705" x2="-6593.0205" y2="13.2389" gradientTransform="matrix(-1 0 0 1 -6567.3359 0)">
				<stop  offset="0" style="stop-color:#F2EE00"/>
				<stop  offset="0.4987" style="stop-color:#F2A000"/>
				<stop  offset="0.9286" style="stop-color:#F28E00"/>
			</linearGradient>
			<circle fill="url(#SVGID_17_)" cx="24.167" cy="13.733" r="0.265"/>
			
				<linearGradient id="SVGID_18_" gradientUnits="userSpaceOnUse" x1="-6573.8701" y1="16.7432" x2="-6589.2388" y2="11.7394" gradientTransform="matrix(-1 0 0 1 -6567.3359 0)">
				<stop  offset="0" style="stop-color:#F2EE00"/>
				<stop  offset="0.4987" style="stop-color:#F2A000"/>
				<stop  offset="0.9286" style="stop-color:#F28E00"/>
			</linearGradient>
			<circle fill="url(#SVGID_18_)" cx="11.122" cy="15.249" r="0.264"/>
			
				<linearGradient id="SVGID_19_" gradientUnits="userSpaceOnUse" x1="-6571.1274" y1="12.5947" x2="-6586.5532" y2="7.5724" gradientTransform="matrix(-1 0 0 1 -6567.3359 0)">
				<stop  offset="0" style="stop-color:#F2EE00"/>
				<stop  offset="0.4987" style="stop-color:#F2A000"/>
				<stop  offset="0.9286" style="stop-color:#F28E00"/>
			</linearGradient>
			<circle fill="url(#SVGID_19_)" cx="4.46" cy="12.377" r="0.265"/>
			
				<linearGradient id="SVGID_20_" gradientUnits="userSpaceOnUse" x1="-6578.6792" y1="24.0889" x2="-6594.105" y2="19.0666" gradientTransform="matrix(-1 0 0 1 -6567.3359 0)">
				<stop  offset="0" style="stop-color:#F2EE00"/>
				<stop  offset="0.4987" style="stop-color:#F2A000"/>
				<stop  offset="0.9286" style="stop-color:#F28E00"/>
			</linearGradient>
			<circle fill="url(#SVGID_20_)" cx="22.931" cy="20.316" r="0.265"/>
			
				<linearGradient id="SVGID_21_" gradientUnits="userSpaceOnUse" x1="-6577.6167" y1="25.1665" x2="-6592.9854" y2="20.1627" gradientTransform="matrix(-1 0 0 1 -6567.3359 0)">
				<stop  offset="0" style="stop-color:#F2EE00"/>
				<stop  offset="0.4987" style="stop-color:#F2A000"/>
				<stop  offset="0.9286" style="stop-color:#F28E00"/>
			</linearGradient>
			<circle fill="url(#SVGID_21_)" cx="17.704" cy="22.749" r="0.264"/>
			
				<linearGradient id="SVGID_22_" gradientUnits="userSpaceOnUse" x1="-6576.2197" y1="21.3799" x2="-6591.6455" y2="16.3576" gradientTransform="matrix(-1 0 0 1 -6567.3359 0)">
				<stop  offset="0" style="stop-color:#F2EE00"/>
				<stop  offset="0.4987" style="stop-color:#F2A000"/>
				<stop  offset="0.9286" style="stop-color:#F28E00"/>
			</linearGradient>
			<circle fill="url(#SVGID_22_)" cx="15.949" cy="19.079" r="0.265"/>
			
				<linearGradient id="SVGID_23_" gradientUnits="userSpaceOnUse" x1="-6573.2524" y1="17.9414" x2="-6588.6763" y2="12.9197" gradientTransform="matrix(-1 0 0 1 -6567.3359 0)">
				<stop  offset="0" style="stop-color:#F2EE00"/>
				<stop  offset="0.4987" style="stop-color:#F2A000"/>
				<stop  offset="0.9286" style="stop-color:#F28E00"/>
			</linearGradient>
			<circle fill="url(#SVGID_23_)" cx="7.69" cy="17.364" r="0.264"/>
			
				<linearGradient id="SVGID_24_" gradientUnits="userSpaceOnUse" x1="-6574.6055" y1="19.5195" x2="-6590.0312" y2="14.4972" gradientTransform="matrix(-1 0 0 1 -6567.3359 0)">
				<stop  offset="0" style="stop-color:#F2EE00"/>
				<stop  offset="0.4987" style="stop-color:#F2A000"/>
				<stop  offset="0.9286" style="stop-color:#F28E00"/>
			</linearGradient>
			<circle fill="url(#SVGID_24_)" cx="11.442" cy="18.162" r="0.265"/>
			
				<linearGradient id="SVGID_25_" gradientUnits="userSpaceOnUse" x1="-6575.9756" y1="17.9004" x2="-6591.4014" y2="12.8781" gradientTransform="matrix(-1 0 0 1 -6567.3359 0)">
				<stop  offset="0" style="stop-color:#F2EE00"/>
				<stop  offset="0.4987" style="stop-color:#F2A000"/>
				<stop  offset="0.9286" style="stop-color:#F28E00"/>
			</linearGradient>
			<circle fill="url(#SVGID_25_)" cx="18.252" cy="14.771" r="0.265"/>
			
				<linearGradient id="SVGID_26_" gradientUnits="userSpaceOnUse" x1="-6579.98" y1="27.7344" x2="-6595.4321" y2="22.7034" gradientTransform="matrix(-1 0 0 1 -6567.3359 0)">
				<stop  offset="0" style="stop-color:#F2EE00"/>
				<stop  offset="0.4987" style="stop-color:#F2A000"/>
				<stop  offset="0.9286" style="stop-color:#F28E00"/>
			</linearGradient>
			<circle fill="url(#SVGID_26_)" cx="24.646" cy="23.827" r="0.265"/>
			
				<linearGradient id="SVGID_27_" gradientUnits="userSpaceOnUse" x1="-6575.3032" y1="18.5928" x2="-6590.7275" y2="13.5708" gradientTransform="matrix(-1 0 0 1 -6567.3359 0)">
				<stop  offset="0" style="stop-color:#F2EE00"/>
				<stop  offset="0.4987" style="stop-color:#F2A000"/>
				<stop  offset="0.9286" style="stop-color:#F28E00"/>
			</linearGradient>
			<circle fill="url(#SVGID_27_)" cx="15.006" cy="16.301" r="0.375"/>
			
				<linearGradient id="SVGID_28_" gradientUnits="userSpaceOnUse" x1="-6573.2505" y1="13.1338" x2="-6588.6714" y2="8.1131" gradientTransform="matrix(-1 0 0 1 -6567.3359 0)">
				<stop  offset="0" style="stop-color:#F2EE00"/>
				<stop  offset="0.4987" style="stop-color:#F2A000"/>
				<stop  offset="0.9286" style="stop-color:#F28E00"/>
			</linearGradient>
			<circle fill="url(#SVGID_28_)" cx="12.159" cy="11.101" r="0.436"/>
			
				<linearGradient id="SVGID_29_" gradientUnits="userSpaceOnUse" x1="-6570.9761" y1="10.3496" x2="-6586.4316" y2="5.3176" gradientTransform="matrix(-1 0 0 1 -6567.3359 0)">
				<stop  offset="0" style="stop-color:#F2EE00"/>
				<stop  offset="0.4987" style="stop-color:#F2A000"/>
				<stop  offset="0.9286" style="stop-color:#F28E00"/>
			</linearGradient>
			<circle fill="url(#SVGID_29_)" cx="5.99" cy="9.585" r="0.436"/>
			
				<linearGradient id="SVGID_30_" gradientUnits="userSpaceOnUse" x1="-6570.854" y1="7.71" x2="-6586.2563" y2="2.6952" gradientTransform="matrix(-1 0 0 1 -6567.3359 0)">
				<stop  offset="0" style="stop-color:#F2EE00"/>
				<stop  offset="0.4987" style="stop-color:#F2A000"/>
				<stop  offset="0.9286" style="stop-color:#F28E00"/>
			</linearGradient>
			<circle fill="url(#SVGID_30_)" cx="7.931" cy="6.273" r="0.435"/>
			
				<linearGradient id="SVGID_31_" gradientUnits="userSpaceOnUse" x1="-6572.4473" y1="15.3105" x2="-6587.8496" y2="10.2958" gradientTransform="matrix(-1 0 0 1 -6567.3359 0)">
				<stop  offset="0" style="stop-color:#F2EE00"/>
				<stop  offset="0.4987" style="stop-color:#F2A000"/>
				<stop  offset="0.9286" style="stop-color:#F28E00"/>
			</linearGradient>
			<circle fill="url(#SVGID_31_)" cx="7.013" cy="14.69" r="0.435"/>
			
				<linearGradient id="SVGID_32_" gradientUnits="userSpaceOnUse" x1="-6576.3237" y1="23.043" x2="-6591.7446" y2="18.0223" gradientTransform="matrix(-1 0 0 1 -6567.3359 0)">
				<stop  offset="0" style="stop-color:#F2EE00"/>
				<stop  offset="0.4987" style="stop-color:#F2A000"/>
				<stop  offset="0.9286" style="stop-color:#F28E00"/>
			</linearGradient>
			<circle fill="url(#SVGID_32_)" cx="14.792" cy="21.153" r="0.436"/>
			
				<linearGradient id="SVGID_33_" gradientUnits="userSpaceOnUse" x1="-6577.5625" y1="23.1226" x2="-6592.9658" y2="18.1075" gradientTransform="matrix(-1 0 0 1 -6567.3359 0)">
				<stop  offset="0" style="stop-color:#F2EE00"/>
				<stop  offset="0.4987" style="stop-color:#F2A000"/>
				<stop  offset="0.9286" style="stop-color:#F28E00"/>
			</linearGradient>
			<circle fill="url(#SVGID_33_)" cx="19.459" cy="20.116" r="0.435"/>
			
				<linearGradient id="SVGID_34_" gradientUnits="userSpaceOnUse" x1="-6579.1562" y1="27.5479" x2="-6594.5771" y2="22.5271" gradientTransform="matrix(-1 0 0 1 -6567.3359 0)">
				<stop  offset="0" style="stop-color:#F2EE00"/>
				<stop  offset="0.4987" style="stop-color:#F2A000"/>
				<stop  offset="0.9286" style="stop-color:#F28E00"/>
			</linearGradient>
			<circle fill="url(#SVGID_34_)" cx="21.534" cy="24.385" r="0.435"/>
			<g>
				
					<linearGradient id="SVGID_35_" gradientUnits="userSpaceOnUse" x1="-6575.3887" y1="15.2471" x2="-6590.8145" y2="10.2248" gradientTransform="matrix(-1 0 0 1 -6567.3359 0)">
					<stop  offset="0" style="stop-color:#F2EE00"/>
					<stop  offset="0.4987" style="stop-color:#F2A000"/>
					<stop  offset="0.9286" style="stop-color:#F28E00"/>
				</linearGradient>
				<circle fill="url(#SVGID_35_)" cx="20.931" cy="11.055" r="0.264"/>
				
					<linearGradient id="SVGID_36_" gradientUnits="userSpaceOnUse" x1="-6572.791" y1="7.2173" x2="-6588.1899" y2="2.2037" gradientTransform="matrix(-1 0 0 1 -6567.3359 0)">
					<stop  offset="0" style="stop-color:#F2EE00"/>
					<stop  offset="0.4987" style="stop-color:#F2A000"/>
					<stop  offset="0.9286" style="stop-color:#F28E00"/>
				</linearGradient>
				<circle fill="url(#SVGID_36_)" cx="13.321" cy="4.657" r="0.264"/>
				
					<linearGradient id="SVGID_37_" gradientUnits="userSpaceOnUse" x1="-6574.252" y1="11.6792" x2="-6589.6509" y2="6.6656" gradientTransform="matrix(-1 0 0 1 -6567.3359 0)">
					<stop  offset="0" style="stop-color:#F2EE00"/>
					<stop  offset="0.4987" style="stop-color:#F2A000"/>
					<stop  offset="0.9286" style="stop-color:#F28E00"/>
				</linearGradient>
				<circle fill="url(#SVGID_37_)" cx="20.476" cy="7.265" r="0.265"/>
				
					<linearGradient id="SVGID_38_" gradientUnits="userSpaceOnUse" x1="-6573.6782" y1="9.9932" x2="-6589.104" y2="4.9709" gradientTransform="matrix(-1 0 0 1 -6567.3359 0)">
					<stop  offset="0" style="stop-color:#F2EE00"/>
					<stop  offset="0.4987" style="stop-color:#F2A000"/>
					<stop  offset="0.9286" style="stop-color:#F28E00"/>
				</linearGradient>
				<circle fill="url(#SVGID_38_)" cx="18.263" cy="6.113" r="0.265"/>
				
					<linearGradient id="SVGID_39_" gradientUnits="userSpaceOnUse" x1="-6572.9951" y1="7.8252" x2="-6588.3921" y2="2.8122" gradientTransform="matrix(-1 0 0 1 -6567.3359 0)">
					<stop  offset="0" style="stop-color:#F2EE00"/>
					<stop  offset="0.4987" style="stop-color:#F2A000"/>
					<stop  offset="0.9286" style="stop-color:#F28E00"/>
				</linearGradient>
				<circle fill="url(#SVGID_39_)" cx="16.042" cy="4.445" r="0.264"/>
				
					<linearGradient id="SVGID_40_" gradientUnits="userSpaceOnUse" x1="-6573.4912" y1="9.3999" x2="-6588.9111" y2="4.3795" gradientTransform="matrix(-1 0 0 1 -6567.3359 0)">
					<stop  offset="0" style="stop-color:#F2EE00"/>
					<stop  offset="0.4987" style="stop-color:#F2A000"/>
					<stop  offset="0.9286" style="stop-color:#F28E00"/>
				</linearGradient>
				<circle fill="url(#SVGID_40_)" cx="14.019" cy="6.84" r="0.436"/>
				
					<linearGradient id="SVGID_41_" gradientUnits="userSpaceOnUse" x1="-6574.6411" y1="12.9229" x2="-6590.0566" y2="7.9039" gradientTransform="matrix(-1 0 0 1 -6567.3359 0)">
					<stop  offset="0" style="stop-color:#F2EE00"/>
					<stop  offset="0.4987" style="stop-color:#F2A000"/>
					<stop  offset="0.9286" style="stop-color:#F28E00"/>
				</linearGradient>
				<circle fill="url(#SVGID_41_)" cx="18.673" cy="9.222" r="0.38"/>
			</g>
			
				<linearGradient id="SVGID_42_" gradientUnits="userSpaceOnUse" x1="-6577.2388" y1="20.1074" x2="-6592.6543" y2="15.0885" gradientTransform="matrix(-1 0 0 1 -6567.3359 0)">
				<stop  offset="0" style="stop-color:#F2EE00"/>
				<stop  offset="0.4987" style="stop-color:#F2A000"/>
				<stop  offset="0.9286" style="stop-color:#F28E00"/>
			</linearGradient>
			<circle fill="url(#SVGID_42_)" cx="21.048" cy="16.479" r="0.38"/>
			
				<linearGradient id="SVGID_43_" gradientUnits="userSpaceOnUse" x1="-6578.8867" y1="22.5811" x2="-6594.3076" y2="17.5603" gradientTransform="matrix(-1 0 0 1 -6567.3359 0)">
				<stop  offset="0" style="stop-color:#F2EE00"/>
				<stop  offset="0.4987" style="stop-color:#F2A000"/>
				<stop  offset="0.9286" style="stop-color:#F28E00"/>
			</linearGradient>
			<circle fill="url(#SVGID_43_)" cx="25.125" cy="18.162" r="0.435"/>
		</g>
	</g>
</g>
</svg>
